# xmcd CD database file
#
# Track frame offsets:
#	150
#	63900
#	88642
#	125275
#	142322
#	176295
#
# Disc length: 2554 seconds
#
# Revision: 0
# Processed by: cddbd v1.5.2PL0 Copyright (c) Steve Scherf et al.
# Submitted via: CDex 1.70beta1
#
DISCID=4d09f806
DTITLE=Andrew Hill - Nefertiti
DYEAR=1976
DGENRE=Jazz
TTITLE0=Blue Black
TTITLE1=Relativity
TTITLE2=Nefertiti
TTITLE3=Hattie
TTITLE4=Mudflower
TTITLE5=Unnatural Man
EXTD=YEAR: 1976
EXTT0=
EXTT1=
EXTT2=
EXTT3=
EXTT4=
EXTT5=
PLAYORDER=
